STARTFONT 2.1
COMMENT $XConsortium: lutBS12.bdf,v 1.8 94/04/02 16:25:40 gildea Exp $
FONT -B&H-LucidaTypewriter-Bold-R-Normal-Sans-17-120-100-100-M-100-ISO8859-1
SIZE 12 100 100
FONTBOUNDINGBOX 11 18 4 -3
STARTPROPERTIES 20
FONTNAME_REGISTRY ""
FOUNDRY "B&H"
FAMILY_NAME "LucidaTypewriter"
WEIGHT_NAME "Bold"
SLANT "R"
SETWIDTH_NAME "Normal"
ADD_STYLE_NAME "Sans"
PIXEL_SIZE 17
POINT_SIZE 120
RESOLUTION_X 100
RESOLUTION_Y 100
SPACING "M"
AVERAGE_WIDTH 100
CHARSET_REGISTRY "ISO8859"
CHARSET_ENCODING "1"
FONT_ASCENT 15
FONT_DESCENT 3
DEFAULT_CHAR 0
COPYRIGHT "Copyright Bigelow & Holmes 1986, 1985."
FACE_NAME "Lucida Sans Typewriter Bold"
ENDPROPERTIES
CHARS 190
STARTCHAR space
ENCODING 32
SWIDTH 602 0
DWIDTH 10 0
BBX 1 1 0 0
BITMAP
00
ENDCHAR
STARTCHAR exclam
ENCODING 33
SWIDTH 602 0
DWIDTH 10 0
BBX 2 12 4 0
BITMAP
c0
c0
c0
c0
c0
c0
c0
c0
00
00
c0
c0
ENDCHAR
STARTCHAR quotedbl
ENCODING 34
SWIDTH 602 0
DWIDTH 10 0
BBX 6 5 2 7
BITMAP
cc
cc
cc
cc
cc
ENDCHAR
STARTCHAR numbersign
ENCODING 35
SWIDTH 602 0
DWIDTH 10 0
BBX 9 12 1 0
BITMAP
1f80
1b00
1b00
7f80
7f80
3600
3600
ff00
ff00
6c00
6c00
fc00
ENDCHAR
STARTCHAR dollar
ENCODING 36
SWIDTH 602 0
DWIDTH 10 0
BBX 8 16 1 -2
BITMAP
18
18
7e
fe
c0
c0
f0
3c
1e
07
03
83
ff
fe
18
18
ENDCHAR
STARTCHAR percent
ENCODING 37
SWIDTH 602 0
DWIDTH 10 0
BBX 10 12 0 0
BITMAP
7180
fb00
db00
de00
fe00
7c00
0f80
1fc0
1ec0
36c0
37c0
6380
ENDCHAR
STARTCHAR ampersand
ENCODING 38
SWIDTH 602 0
DWIDTH 10 0
BBX 10 12 0 0
BITMAP
3e00
7f00
6300
7300
3e00
3cc0
7cc0
ccc0
c680
e380
7f80
3dc0
ENDCHAR
STARTCHAR quoteright
ENCODING 39
SWIDTH 602 0
DWIDTH 10 0
BBX 3 5 4 7
BITMAP
e0
e0
e0
e0
c0
ENDCHAR
STARTCHAR parenleft
ENCODING 40
SWIDTH 602 0
DWIDTH 10 0
BBX 6 15 3 -3
BITMAP
0c
3c
78
60
e0
c0
c0
c0
c0
c0
60
60
30
1c
0c
ENDCHAR
STARTCHAR parenright
ENCODING 41
SWIDTH 602 0
DWIDTH 10 0
BBX 6 15 1 -3
BITMAP
c0
e0
30
18
18
0c
0c
0c
0c
0c
1c
18
78
f0
c0
ENDCHAR
STARTCHAR asterisk
ENCODING 42
SWIDTH 602 0
DWIDTH 10 0
BBX 8 7 1 5
BITMAP
18
59
e3
e7
38
66
24
ENDCHAR
STARTCHAR plus
ENCODING 43
SWIDTH 602 0
DWIDTH 10 0
BBX 8 9 1 0
BITMAP
18
18
18
ff
ff
18
18
18
18
ENDCHAR
STARTCHAR comma
ENCODING 44
SWIDTH 602 0
DWIDTH 10 0
BBX 3 6 4 -3
BITMAP
e0
e0
e0
60
e0
c0
ENDCHAR
STARTCHAR minus
ENCODING 45
SWIDTH 602 0
DWIDTH 10 0
BBX 9 2 1 3
BITMAP
ff80
ff80
ENDCHAR
STARTCHAR period
ENCODING 46
SWIDTH 602 0
DWIDTH 10 0
BBX 3 2 4 0
BITMAP
e0
e0
ENDCHAR
STARTCHAR slash
ENCODING 47
SWIDTH 602 0
DWIDTH 10 0
BBX 10 15 0 -3
BITMAP
00c0
0180
0380
0300
0700
0600
0e00
0c00
1c00
1800
3800
3000
6000
6000
c000
ENDCHAR
STARTCHAR zero
ENCODING 48
SWIDTH 602 0
DWIDTH 10 0
BBX 9 12 1 0
BITMAP
3e00
7f00
6300
c180
c180
c180
c180
c180
c180
6300
7f00
3e00
ENDCHAR
STARTCHAR one
ENCODING 49
SWIDTH 602 0
DWIDTH 10 0
BBX 6 12 3 0
BITMAP
f0
f0
30
30
30
30
30
30
30
30
fc
fc
ENDCHAR
STARTCHAR two
ENCODING 50
SWIDTH 602 0
DWIDTH 10 0
BBX 7 12 2 0
BITMAP
78
fe
8e
06
06
0e
1c
38
70
e0
fe
fe
ENDCHAR
STARTCHAR three
ENCODING 51
SWIDTH 602 0
DWIDTH 10 0
BBX 6 12 2 0
BITMAP
78
fc
8c
0c
1c
70
78
1c
0c
8c
f8
f0
ENDCHAR
STARTCHAR four
ENCODING 52
SWIDTH 602 0
DWIDTH 10 0
BBX 9 12 1 0
BITMAP
0e00
0e00
1e00
3e00
3600
6600
c600
ff80
ff80
0600
0600
0600
ENDCHAR
STARTCHAR five
ENCODING 53
SWIDTH 602 0
DWIDTH 10 0
BBX 6 12 2 0
BITMAP
fc
fc
c0
c0
f0
f8
1c
0c
0c
9c
f8
f0
ENDCHAR
STARTCHAR six
ENCODING 54
SWIDTH 602 0
DWIDTH 10 0
BBX 9 12 1 0
BITMAP
1f80
3f80
7080
e000
de00
ff00
e380
c180
c180
6380
7f00
1e00
ENDCHAR
STARTCHAR seven
ENCODING 55
SWIDTH 602 0
DWIDTH 10 0
BBX 7 12 2 0
BITMAP
fe
fe
0e
0c
1c
38
30
70
60
e0
c0
c0
ENDCHAR
STARTCHAR eight
ENCODING 56
SWIDTH 602 0
DWIDTH 10 0
BBX 8 12 1 0
BITMAP
3c
7e
66
66
7c
3c
6e
c7
c3
e3
7e
3c
ENDCHAR
STARTCHAR nine
ENCODING 57
SWIDTH 602 0
DWIDTH 10 0
BBX 9 12 1 0
BITMAP
3c00
7f00
e300
c180
c180
e380
7f80
3d80
0380
8700
fe00
fc00
ENDCHAR
STARTCHAR colon
ENCODING 58
SWIDTH 602 0
DWIDTH 10 0
BBX 2 9 4 0
BITMAP
c0
c0
00
00
00
00
00
c0
c0
ENDCHAR
STARTCHAR semicolon
ENCODING 59
SWIDTH 602 0
DWIDTH 10 0
BBX 2 12 4 -3
BITMAP
c0
c0
00
00
00
00
c0
c0
c0
c0
c0
80
ENDCHAR
STARTCHAR less
ENCODING 60
SWIDTH 602 0
DWIDTH 10 0
BBX 9 9 1 0
BITMAP
0080
0380
0f00
3c00
f000
3c00
0f00
0380
0080
ENDCHAR
STARTCHAR equal
ENCODING 61
SWIDTH 602 0
DWIDTH 10 0
BBX 9 6 1 1
BITMAP
ff80
ff80
0000
0000
ff80
ff80
ENDCHAR
STARTCHAR greater
ENCODING 62
SWIDTH 602 0
DWIDTH 10 0
BBX 9 9 1 0
BITMAP
8000
e000
7800
1e00
0780
1e00
7800
e000
8000
ENDCHAR
STARTCHAR question
ENCODING 63
SWIDTH 602 0
DWIDTH 10 0
BBX 8 12 1 0
BITMAP
7c
ff
c3
c3
07
1e
3c
30
30
00
30
30
ENDCHAR
STARTCHAR at
ENCODING 64
SWIDTH 602 0
DWIDTH 10 0
BBX 10 12 0 0
BITMAP
1f00
3f80
7180
6f80
df80
d980
db80
dfc0
cdc0
6200
7e00
3c00
ENDCHAR
STARTCHAR A
ENCODING 65
SWIDTH 602 0
DWIDTH 10 0
BBX 10 12 0 0
BITMAP
0c00
1e00
1e00
1e00
3700
3300
3300
7f80
7f80
6180
c180
c0c0
ENDCHAR
STARTCHAR B
ENCODING 66
SWIDTH 602 0
DWIDTH 10 0
BBX 8 12 1 0
BITMAP
fe
ff
c3
c3
c6
fc
fe
c7
c3
c7
ff
fe
ENDCHAR
STARTCHAR C
ENCODING 67
SWIDTH 602 0
DWIDTH 10 0
BBX 9 12 1 0
BITMAP
1f80
3f80
7080
e000
c000
c000
c000
c000
e000
7080
3f80
1f00
ENDCHAR
STARTCHAR D
ENCODING 68
SWIDTH 602 0
DWIDTH 10 0
BBX 9 12 1 0
BITMAP
fe00
ff00
c380
c180
c180
c180
c180
c180
c180
c300
fe00
fc00
ENDCHAR
STARTCHAR E
ENCODING 69
SWIDTH 602 0
DWIDTH 10 0
BBX 8 12 1 0
BITMAP
ff
ff
c0
c0
c0
fe
fe
c0
c0
c0
ff
ff
ENDCHAR
STARTCHAR F
ENCODING 70
SWIDTH 602 0
DWIDTH 10 0
BBX 8 12 2 0
BITMAP
ff
ff
c0
c0
c0
fe
fe
c0
c0
c0
c0
c0
ENDCHAR
STARTCHAR G
ENCODING 71
SWIDTH 602 0
DWIDTH 10 0
BBX 10 12 0 0
BITMAP
1fc0
3fc0
7040
e000
c000
c000
c0c0
c0c0
e0c0
70c0
3fc0
1f80
ENDCHAR
STARTCHAR H
ENCODING 72
SWIDTH 602 0
DWIDTH 10 0
BBX 9 12 1 0
BITMAP
c180
c180
c180
c180
c180
ff80
ff80
c180
c180
c180
c180
c180
ENDCHAR
STARTCHAR I
ENCODING 73
SWIDTH 602 0
DWIDTH 10 0
BBX 8 12 1 0
BITMAP
ff
ff
18
18
18
18
18
18
18
18
ff
ff
ENDCHAR
STARTCHAR J
ENCODING 74
SWIDTH 602 0
DWIDTH 10 0
BBX 7 12 1 0
BITMAP
7e
7e
06
06
06
06
06
06
06
0e
fc
f8
ENDCHAR
STARTCHAR K
ENCODING 75
SWIDTH 602 0
DWIDTH 10 0
BBX 9 12 1 0
BITMAP
c380
c700
ce00
dc00
d800
f000
f800
d800
cc00
ce00
c700
c380
ENDCHAR
STARTCHAR L
ENCODING 76
SWIDTH 602 0
DWIDTH 10 0
BBX 8 12 2 0
BITMAP
c0
c0
c0
c0
c0
c0
c0
c0
c0
c0
ff
ff
ENDCHAR
STARTCHAR M
ENCODING 77
SWIDTH 602 0
DWIDTH 10 0
BBX 9 12 1 0
BITMAP
e380
e380
f780
f780
f780
f780
f780
dd80
dd80
dd80
dd80
c180
ENDCHAR
STARTCHAR N
ENCODING 78
SWIDTH 602 0
DWIDTH 10 0
BBX 8 12 1 0
BITMAP
e3
e3
e3
f3
f3
db
db
cf
cf
c7
c7
c3
ENDCHAR
STARTCHAR O
ENCODING 79
SWIDTH 602 0
DWIDTH 10 0
BBX 10 12 0 0
BITMAP
1e00
7f80
6180
c0c0
c0c0
c0c0
c0c0
c0c0
c0c0
6180
7f80
1e00
ENDCHAR
STARTCHAR P
ENCODING 80
SWIDTH 602 0
DWIDTH 10 0
BBX 9 12 1 0
BITMAP
fe00
ff00
c180
c180
c180
c380
ff00
fe00
c000
c000
c000
c000
ENDCHAR
STARTCHAR Q
ENCODING 81
SWIDTH 602 0
DWIDTH 10 0
BBX 11 14 0 -2
BITMAP
1e00
7f80
6180
c0c0
c0c0
c0c0
c0c0
c0c0
c0c0
61c0
7f80
1f00
03e0
00c0
ENDCHAR
STARTCHAR R
ENCODING 82
SWIDTH 602 0
DWIDTH 10 0
BBX 8 12 1 0
BITMAP
fe
ff
c3
c3
c3
c6
fc
fc
ce
c6
c7
c3
ENDCHAR
STARTCHAR S
ENCODING 83
SWIDTH 602 0
DWIDTH 10 0
BBX 9 12 1 0
BITMAP
3f00
7f00
c100
c000
f000
3c00
0f00
0380
0180
8380
ff00
fe00
ENDCHAR
STARTCHAR T
ENCODING 84
SWIDTH 602 0
DWIDTH 10 0
BBX 10 12 0 0
BITMAP
ffc0
ffc0
0c00
0c00
0c00
0c00
0c00
0c00
0c00
0c00
0c00
0c00
ENDCHAR
STARTCHAR U
ENCODING 85
SWIDTH 602 0
DWIDTH 10 0
BBX 8 12 1 0
BITMAP
c3
c3
c3
c3
c3
c3
c3
c3
c3
c3
fe
7c
ENDCHAR
STARTCHAR V
ENCODING 86
SWIDTH 602 0
DWIDTH 10 0
BBX 10 12 0 0
BITMAP
e0c0
60c0
6180
6180
3180
3300
3300
1b00
1e00
1e00
1e00
0c00
ENDCHAR
STARTCHAR W
ENCODING 87
SWIDTH 602 0
DWIDTH 10 0
BBX 10 12 0 0
BITMAP
c0c0
cec0
cec0
de80
7e80
7f80
7f80
7f80
7780
7300
7300
7300
ENDCHAR
STARTCHAR X
ENCODING 88
SWIDTH 602 0
DWIDTH 10 0
BBX 10 12 0 0
BITMAP
e1c0
7180
3300
3f00
1e00
0e00
1e00
1e00
3700
7300
6180
c1c0
ENDCHAR
STARTCHAR Y
ENCODING 89
SWIDTH 602 0
DWIDTH 10 0
BBX 10 12 0 0
BITMAP
e0c0
6180
3380
3300
1f00
1e00
0e00
0c00
0c00
0c00
0c00
0c00
ENDCHAR
STARTCHAR Z
ENCODING 90
SWIDTH 602 0
DWIDTH 10 0
BBX 9 12 0 0
BITMAP
ff80
ff80
0300
0600
0e00
0c00
1800
3800
3000
6000
ff80
ff80
ENDCHAR
STARTCHAR bracketleft
ENCODING 91
SWIDTH 602 0
DWIDTH 10 0
BBX 6 15 3 -3
BITMAP
fc
fc
c0
c0
c0
c0
c0
c0
c0
c0
c0
c0
c0
fc
fc
ENDCHAR
STARTCHAR backslash
ENCODING 92
SWIDTH 602 0
DWIDTH 10 0
BBX 10 15 0 -3
BITMAP
c000
6000
7000
3000
3800
1800
1c00
0c00
0e00
0600
0700
0300
0380
0180
00c0
ENDCHAR
STARTCHAR bracketright
ENCODING 93
SWIDTH 602 0
DWIDTH 10 0
BBX 6 15 1 -3
BITMAP
fc
fc
0c
0c
0c
0c
0c
0c
0c
0c
0c
0c
0c
fc
fc
ENDCHAR
STARTCHAR asciicircum
ENCODING 94
SWIDTH 602 0
DWIDTH 10 0
BBX 9 10 1 2
BITMAP
0800
0800
1c00
1c00
3e00
3600
3600
6300
6300
c180
ENDCHAR
STARTCHAR underscore
ENCODING 95
SWIDTH 602 0
DWIDTH 10 0
BBX 10 2 0 -2
BITMAP
ffc0
ffc0
ENDCHAR
STARTCHAR quoteleft
ENCODING 96
SWIDTH 602 0
DWIDTH 10 0
BBX 3 5 4 7
BITMAP
60
e0
e0
e0
e0
ENDCHAR
STARTCHAR a
ENCODING 97
SWIDTH 602 0
DWIDTH 10 0
BBX 9 9 1 0
BITMAP
7e00
7f00
4300
3f00
ff00
c300
c700
ff80
7b80
ENDCHAR
STARTCHAR b
ENCODING 98
SWIDTH 602 0
DWIDTH 10 0
BBX 9 12 1 0
BITMAP
c000
c000
c000
de00
ff00
e380
c180
c180
c180
e380
ff00
de00
ENDCHAR
STARTCHAR c
ENCODING 99
SWIDTH 602 0
DWIDTH 10 0
BBX 8 9 1 0
BITMAP
3f
7f
e1
c0
c0
c0
e0
7f
3f
ENDCHAR
STARTCHAR d
ENCODING 100
SWIDTH 602 0
DWIDTH 10 0
BBX 9 12 1 0
BITMAP
0180
0180
0180
3d80
7f80
e380
c180
c180
c180
e380
7f80
3d80
ENDCHAR
STARTCHAR e
ENCODING 101
SWIDTH 602 0
DWIDTH 10 0
BBX 9 9 1 0
BITMAP
3e00
7f00
e180
ff80
ff80
c000
e080
7f80
1f00
ENDCHAR
STARTCHAR f
ENCODING 102
SWIDTH 602 0
DWIDTH 10 0
BBX 8 12 2 0
BITMAP
1f
3f
30
fe
fe
30
30
30
30
30
30
30
ENDCHAR
STARTCHAR g
ENCODING 103
SWIDTH 602 0
DWIDTH 10 0
BBX 9 12 1 -3
BITMAP
3d80
7f80
e380
c180
c180
c180
e380
7d80
3d80
4380
7f00
3e00
ENDCHAR
STARTCHAR h
ENCODING 104
SWIDTH 602 0
DWIDTH 10 0
BBX 8 12 1 0
BITMAP
c0
c0
c0
de
ff
e3
c3
c3
c3
c3
c3
c3
ENDCHAR
STARTCHAR i
ENCODING 105
SWIDTH 602 0
DWIDTH 10 0
BBX 5 12 2 0
BITMAP
18
18
00
f8
f8
18
18
18
18
18
18
18
ENDCHAR
STARTCHAR j
ENCODING 106
SWIDTH 602 0
DWIDTH 10 0
BBX 6 15 1 -3
BITMAP
0c
0c
00
7c
7c
0c
0c
0c
0c
0c
0c
0c
8c
fc
f8
ENDCHAR
STARTCHAR k
ENCODING 107
SWIDTH 602 0
DWIDTH 10 0
BBX 8 12 2 0
BITMAP
c0
c0
c0
c6
cc
dc
f8
f8
d8
cc
ce
c7
ENDCHAR
STARTCHAR l
ENCODING 108
SWIDTH 602 0
DWIDTH 10 0
BBX 5 12 1 0
BITMAP
f8
f8
18
18
18
18
18
18
18
18
18
18
ENDCHAR
STARTCHAR m
ENCODING 109
SWIDTH 602 0
DWIDTH 10 0
BBX 10 9 0 0
BITMAP
d9c0
ffc0
eec0
ccc0
ccc0
ccc0
ccc0
ccc0
ccc0
ENDCHAR
STARTCHAR n
ENCODING 110
SWIDTH 602 0
DWIDTH 10 0
BBX 8 9 1 0
BITMAP
de
ff
e3
c3
c3
c3
c3
c3
c3
ENDCHAR
STARTCHAR o
ENCODING 111
SWIDTH 602 0
DWIDTH 10 0
BBX 9 9 1 0
BITMAP
3e00
7f00
e380
c180
c180
c180
e380
7f00
3e00
ENDCHAR
STARTCHAR p
ENCODING 112
SWIDTH 602 0
DWIDTH 10 0
BBX 9 12 1 -3
BITMAP
de00
ff00
e380
c180
c180
c180
e380
ff00
de00
c000
c000
c000
ENDCHAR
STARTCHAR q
ENCODING 113
SWIDTH 602 0
DWIDTH 10 0
BBX 9 12 1 -3
BITMAP
3d80
7f80
e380
c180
c180
c180
e380
7f80
3d80
0180
0180
0180
ENDCHAR
STARTCHAR r
ENCODING 114
SWIDTH 602 0
DWIDTH 10 0
BBX 7 9 2 0
BITMAP
de
fe
e6
c6
c0
c0
c0
c0
c0
ENDCHAR
STARTCHAR s
ENCODING 115
SWIDTH 602 0
DWIDTH 10 0
BBX 8 9 1 0
BITMAP
3e
fe
e2
f8
7e
0f
83
ff
fc
ENDCHAR
STARTCHAR t
ENCODING 116
SWIDTH 602 0
DWIDTH 10 0
BBX 8 11 1 0
BITMAP
30
30
ff
ff
30
30
30
30
30
3f
1f
ENDCHAR
STARTCHAR u
ENCODING 117
SWIDTH 602 0
DWIDTH 10 0
BBX 8 9 1 0
BITMAP
c3
c3
c3
c3
c3
c3
c7
ff
7b
ENDCHAR
STARTCHAR v
ENCODING 118
SWIDTH 602 0
DWIDTH 10 0
BBX 10 9 0 0
BITMAP
e0c0
6180
6180
3380
3300
1b00
1e00
1e00
0e00
ENDCHAR
STARTCHAR w
ENCODING 119
SWIDTH 602 0
DWIDTH 10 0
BBX 10 9 0 0
BITMAP
c0c0
ccc0
dec0
7e80
7e80
7b80
7380
7380
7380
ENDCHAR
STARTCHAR x
ENCODING 120
SWIDTH 602 0
DWIDTH 10 0
BBX 9 9 1 0
BITMAP
e380
7700
3600
1c00
1c00
3c00
7600
6700
c380
ENDCHAR
STARTCHAR y
ENCODING 121
SWIDTH 602 0
DWIDTH 10 0
BBX 10 12 0 -3
BITMAP
e0c0
6180
3180
3300
1b00
1e00
0e00
0e00
0c00
1c00
7800
7000
ENDCHAR
STARTCHAR z
ENCODING 122
SWIDTH 602 0
DWIDTH 10 0
BBX 8 9 1 0
BITMAP
ff
ff
0e
1c
18
30
60
ff
ff
ENDCHAR
STARTCHAR braceleft
ENCODING 123
SWIDTH 602 0
DWIDTH 10 0
BBX 7 15 2 -3
BITMAP
0e
1e
18
18
18
18
18
e0
f8
18
18
18
18
1e
1e
ENDCHAR
STARTCHAR bar
ENCODING 124
SWIDTH 602 0
DWIDTH 10 0
BBX 2 15 4 -3
BITMAP
c0
c0
c0
c0
c0
c0
c0
c0
c0
c0
c0
c0
c0
c0
c0
ENDCHAR
STARTCHAR braceright
ENCODING 125
SWIDTH 602 0
DWIDTH 10 0
BBX 7 15 1 -3
BITMAP
e0
f0
30
30
30
30
30
0e
3e
30
30
30
30
f0
f0
ENDCHAR
STARTCHAR asciitilde
ENCODING 126
SWIDTH 602 0
DWIDTH 10 0
BBX 9 3 1 3
BITMAP
7980
ff80
cf00
ENDCHAR
STARTCHAR exclamdown
ENCODING 161
SWIDTH 602 0
DWIDTH 10 0
BBX 2 12 4 -3
BITMAP
c0
c0
00
00
c0
c0
c0
c0
c0
c0
c0
c0
ENDCHAR
STARTCHAR cent
ENCODING 162
SWIDTH 602 0
DWIDTH 10 0
BBX 8 12 1 0
BITMAP
0c
0c
3f
7f
e0
c0
c0
e0
7f
3f
0c
0c
ENDCHAR
STARTCHAR sterling
ENCODING 163
SWIDTH 602 0
DWIDTH 10 0
BBX 6 12 2 0
BITMAP
3c
7c
60
60
60
f8
f8
60
60
40
fc
fc
ENDCHAR
STARTCHAR currency
ENCODING 164
SWIDTH 602 0
DWIDTH 10 0
BBX 10 10 0 1
BITMAP
4080
ffc0
7f80
7380
6180
6180
7380
7f80
ffc0
4080
ENDCHAR
STARTCHAR yen
ENCODING 165
SWIDTH 602 0
DWIDTH 10 0
BBX 10 12 0 0
BITMAP
e1c0
3b80
1f00
0e00
3f00
3f00
0c00
3f00
3f00
0c00
0c00
0c00
ENDCHAR
STARTCHAR brokenbar
ENCODING 166
SWIDTH 602 0
DWIDTH 10 0
BBX 2 15 4 -3
BITMAP
c0
c0
c0
c0
c0
c0
00
00
00
c0
c0
c0
c0
c0
c0
ENDCHAR
STARTCHAR section
ENCODING 167
SWIDTH 602 0
DWIDTH 10 0
BBX 7 15 2 -3
BITMAP
7c
fc
c4
c0
70
7c
ce
c6
e6
7c
1c
06
86
fe
f8
ENDCHAR
STARTCHAR dieresis
ENCODING 168
SWIDTH 602 0
DWIDTH 10 0
BBX 5 2 3 10
BITMAP
d8
d8
ENDCHAR
STARTCHAR copyright
ENCODING 169
SWIDTH 602 0
DWIDTH 10 0
BBX 9 12 1 0
BITMAP
1c00
7f00
e300
dd80
fd80
f580
f180
fd80
dd80
6380
7f00
3c00
ENDCHAR
STARTCHAR ordfeminine
ENCODING 170
SWIDTH 602 0
DWIDTH 10 0
BBX 8 6 1 6
BITMAP
fc
fe
86
7e
ff
7f
ENDCHAR
STARTCHAR guillemotleft
ENCODING 171
SWIDTH 602 0
DWIDTH 10 0
BBX 9 8 1 1
BITMAP
1100
3b80
7300
6600
ee00
7700
3b80
1100
ENDCHAR
STARTCHAR logicalnot
ENCODING 172
SWIDTH 602 0
DWIDTH 10 0
BBX 9 5 1 1
BITMAP
ff80
ff80
0180
0180
0180
ENDCHAR
STARTCHAR hyphen
ENCODING 173
SWIDTH 602 0
DWIDTH 10 0
BBX 7 2 2 4
BITMAP
fe
fe
ENDCHAR
STARTCHAR registered
ENCODING 174
SWIDTH 602 0
DWIDTH 10 0
BBX 9 9 1 3
BITMAP
3c00
7f00
e300
df80
df80
df80
ff00
7f00
3c00
ENDCHAR
STARTCHAR macron
ENCODING 175
SWIDTH 602 0
DWIDTH 10 0
BBX 5 2 3 10
BITMAP
f8
f8
ENDCHAR
STARTCHAR degree
ENCODING 176
SWIDTH 602 0
DWIDTH 10 0
BBX 3 3 4 9
BITMAP
e0
a0
e0
ENDCHAR
STARTCHAR plusminus
ENCODING 177
SWIDTH 602 0
DWIDTH 10 0
BBX 8 9 1 0
BITMAP
18
18
ff
ff
18
18
00
ff
ff
ENDCHAR
STARTCHAR twosuperior
ENCODING 178
SWIDTH 602 0
DWIDTH 10 0
BBX 4 6 -1 6
BITMAP
e0
10
10
60
c0
f0
ENDCHAR
STARTCHAR threesuperior
ENCODING 179
SWIDTH 602 0
DWIDTH 10 0
BBX 3 6 -2 6
BITMAP
e0
20
c0
20
20
c0
ENDCHAR
STARTCHAR acute
ENCODING 180
SWIDTH 602 0
DWIDTH 10 0
BBX 4 2 3 10
BITMAP
70
c0
ENDCHAR
STARTCHAR mu
ENCODING 181
SWIDTH 602 0
DWIDTH 10 0
BBX 8 12 1 -3
BITMAP
c3
c3
c3
c3
c3
c3
e7
ff
fb
c0
c0
c0
ENDCHAR
STARTCHAR paragraph
ENCODING 182
SWIDTH 602 0
DWIDTH 10 0
BBX 7 15 1 -3
BITMAP
7e
fe
fe
fe
fe
7e
1e
1e
1e
1e
1e
1e
1e
1e
1e
ENDCHAR
STARTCHAR periodcentered
ENCODING 183
SWIDTH 602 0
DWIDTH 10 0
BBX 2 2 4 3
BITMAP
c0
c0
ENDCHAR
STARTCHAR cedilla
ENCODING 184
SWIDTH 602 0
DWIDTH 10 0
BBX 3 3 4 -3
BITMAP
c0
60
e0
ENDCHAR
STARTCHAR onesuperior
ENCODING 185
SWIDTH 602 0
DWIDTH 10 0
BBX 3 6 -2 6
BITMAP
c0
40
40
40
40
e0
ENDCHAR
STARTCHAR ordmasculine
ENCODING 186
SWIDTH 602 0
DWIDTH 10 0
BBX 8 6 1 6
BITMAP
3c
ff
c3
c3
ff
3c
ENDCHAR
STARTCHAR guillemotright
ENCODING 187
SWIDTH 602 0
DWIDTH 10 0
BBX 9 8 1 1
BITMAP
4400
ee00
7700
3380
3b80
6700
ee00
4400
ENDCHAR
STARTCHAR onequarter
ENCODING 188
SWIDTH 602 0
DWIDTH 10 0
BBX 10 12 2 0
BITMAP
c0c0
4180
4380
4300
4600
ee00
1d80
1980
3280
73c0
6080
c080
ENDCHAR
STARTCHAR onehalf
ENCODING 189
SWIDTH 602 0
DWIDTH 10 0
BBX 10 12 2 0
BITMAP
c0c0
4180
4380
4300
4600
ee00
1f80
1840
3040
7180
6300
c3c0
ENDCHAR
STARTCHAR threequarters
ENCODING 190
SWIDTH 602 0
DWIDTH 10 0
BBX 10 12 2 0
BITMAP
e0c0
2180
c380
2300
2600
ce00
1d80
1980
3280
73c0
6080
c080
ENDCHAR
STARTCHAR questiondown
ENCODING 191
SWIDTH 602 0
DWIDTH 10 0
BBX 8 12 1 -3
BITMAP
0c
0c
00
0c
0c
38
70
e0
c3
c3
ff
3e
ENDCHAR
STARTCHAR Agrave
ENCODING 192
SWIDTH 602 0
DWIDTH 10 0
BBX 10 15 0 0
BITMAP
1c00
0600
0000
0c00
1e00
1e00
1e00
3700
3300
3300
7f80
7f80
6180
c180
c0c0
ENDCHAR
STARTCHAR Aacute
ENCODING 193
SWIDTH 602 0
DWIDTH 10 0
BBX 10 15 0 0
BITMAP
0e00
1800
0000
0c00
1e00
1e00
1e00
3700
3300
3300
7f80
7f80
6180
c180
c0c0
ENDCHAR
STARTCHAR Acircumflex
ENCODING 194
SWIDTH 602 0
DWIDTH 10 0
BBX 10 15 0 0
BITMAP
0e00
1b00
0000
0c00
1e00
1e00
1e00
3700
3300
3300
7f80
7f80
6180
c180
c0c0
ENDCHAR
STARTCHAR Atilde
ENCODING 195
SWIDTH 602 0
DWIDTH 10 0
BBX 10 15 0 0
BITMAP
1f00
1f00
0000
0c00
1e00
1e00
1e00
3700
3300
3300
7f80
7f80
6180
c180
c0c0
ENDCHAR
STARTCHAR Adieresis
ENCODING 196
SWIDTH 602 0
DWIDTH 10 0
BBX 10 15 0 0
BITMAP
1b00
1b00
0000
0c00
1e00
1e00
1e00
3700
3300
3300
7f80
7f80
6180
c180
c0c0
ENDCHAR
STARTCHAR Aring
ENCODING 197
SWIDTH 602 0
DWIDTH 10 0
BBX 10 15 0 0
BITMAP
0e00
0e00
0000
0c00
1e00
1e00
1e00
3700
3300
3300
7f80
7f80
6180
c180
c0c0
ENDCHAR
STARTCHAR AE
ENCODING 198
SWIDTH 602 0
DWIDTH 10 0
BBX 10 12 0 0
BITMAP
0fc0
0fc0
1e00
1e00
1e00
3fc0
37c0
7e00
7e00
6600
e7c0
c7c0
ENDCHAR
STARTCHAR Ccedilla
ENCODING 199
SWIDTH 602 0
DWIDTH 10 0
BBX 9 15 1 -3
BITMAP
1f80
3f80
7080
e000
c000
c000
c000
c000
e000
7080
3f80
1f00
0800
0c00
1c00
ENDCHAR
STARTCHAR Egrave
ENCODING 200
SWIDTH 602 0
DWIDTH 10 0
BBX 8 15 1 0
BITMAP
38
0c
00
ff
ff
c0
c0
c0
fe
fe
c0
c0
c0
ff
ff
ENDCHAR
STARTCHAR Eacute
ENCODING 201
SWIDTH 602 0
DWIDTH 10 0
BBX 8 15 1 0
BITMAP
1c
30
00
ff
ff
c0
c0
c0
fe
fe
c0
c0
c0
ff
ff
ENDCHAR
STARTCHAR Ecircumflex
ENCODING 202
SWIDTH 602 0
DWIDTH 10 0
BBX 8 15 1 0
BITMAP
1c
36
00
ff
ff
c0
c0
c0
fe
fe
c0
c0
c0
ff
ff
ENDCHAR
STARTCHAR Edieresis
ENCODING 203
SWIDTH 602 0
DWIDTH 10 0
BBX 8 15 1 0
BITMAP
6c
6c
00
ff
ff
c0
c0
c0
fe
fe
c0
c0
c0
ff
ff
ENDCHAR
STARTCHAR Igrave
ENCODING 204
SWIDTH 602 0
DWIDTH 10 0
BBX 8 15 1 0
BITMAP
38
0c
00
ff
ff
18
18
18
18
18
18
18
18
ff
ff
ENDCHAR
STARTCHAR Iacute
ENCODING 205
SWIDTH 602 0
DWIDTH 10 0
BBX 8 15 1 0
BITMAP
1c
30
00
ff
ff
18
18
18
18
18
18
18
18
ff
ff
ENDCHAR
STARTCHAR Icircumflex
ENCODING 206
SWIDTH 602 0
DWIDTH 10 0
BBX 8 15 1 0
BITMAP
1c
36
00
ff
ff
18
18
18
18
18
18
18
18
ff
ff
ENDCHAR
STARTCHAR Idieresis
ENCODING 207
SWIDTH 602 0
DWIDTH 10 0
BBX 8 15 1 0
BITMAP
36
36
00
ff
ff
18
18
18
18
18
18
18
18
ff
ff
ENDCHAR
STARTCHAR Eth
ENCODING 208
SWIDTH 602 0
DWIDTH 10 0
BBX 10 12 0 0
BITMAP
7f00
7f80
61c0
60c0
60c0
fcc0
fcc0
60c0
60c0
6180
7f00
7e00
ENDCHAR
STARTCHAR Ntilde
ENCODING 209
SWIDTH 602 0
DWIDTH 10 0
BBX 8 15 1 0
BITMAP
3e
3e
00
e3
e3
e3
f3
f3
db
db
cf
cf
c7
c7
c3
ENDCHAR
STARTCHAR Ograve
ENCODING 210
SWIDTH 602 0
DWIDTH 10 0
BBX 10 15 0 0
BITMAP
1c00
0600
0000
1e00
7f80
6180
c0c0
c0c0
c0c0
c0c0
c0c0
c0c0
6180
7f80
1e00
ENDCHAR
STARTCHAR Oacute
ENCODING 211
SWIDTH 602 0
DWIDTH 10 0
BBX 10 15 0 0
BITMAP
0e00
1800
0000
1e00
7f80
6180
c0c0
c0c0
c0c0
c0c0
c0c0
c0c0
6180
7f80
1e00
ENDCHAR
STARTCHAR Ocircumflex
ENCODING 212
SWIDTH 602 0
DWIDTH 10 0
BBX 10 15 0 0
BITMAP
1c00
3600
0000
1e00
7f80
6180
c0c0
c0c0
c0c0
c0c0
c0c0
c0c0
6180
7f80
1e00
ENDCHAR
STARTCHAR Otilde
ENCODING 213
SWIDTH 602 0
DWIDTH 10 0
BBX 10 15 0 0
BITMAP
1f00
1f00
0000
1e00
7f80
6180
c0c0
c0c0
c0c0
c0c0
c0c0
c0c0
6180
7f80
1e00
ENDCHAR
STARTCHAR Odieresis
ENCODING 214
SWIDTH 602 0
DWIDTH 10 0
BBX 10 15 0 0
BITMAP
3600
3600
0000
1e00
7f80
6180
c0c0
c0c0
c0c0
c0c0
c0c0
c0c0
6180
7f80
1e00
ENDCHAR
STARTCHAR multiply
ENCODING 215
SWIDTH 602 0
DWIDTH 10 0
BBX 9 9 1 0
BITMAP
4100
e380
7700
3e00
1c00
3e00
7700
e380
4100
ENDCHAR
STARTCHAR Oslash
ENCODING 216
SWIDTH 602 0
DWIDTH 10 0
BBX 10 12 0 0
BITMAP
1ec0
7f80
6180
c3c0
c7c0
cec0
dcc0
f8c0
f0c0
6180
7f80
de00
ENDCHAR
STARTCHAR Ugrave
ENCODING 217
SWIDTH 602 0
DWIDTH 10 0
BBX 8 15 1 0
BITMAP
38
0c
00
c3
c3
c3
c3
c3
c3
c3
c3
c3
c3
fe
7c
ENDCHAR
STARTCHAR Uacute
ENCODING 218
SWIDTH 602 0
DWIDTH 10 0
BBX 8 15 1 0
BITMAP
1c
30
00
c3
c3
c3
c3
c3
c3
c3
c3
c3
c3
fe
7c
ENDCHAR
STARTCHAR Ucircumflex
ENCODING 219
SWIDTH 602 0
DWIDTH 10 0
BBX 8 15 1 0
BITMAP
1c
36
00
c3
c3
c3
c3
c3
c3
c3
c3
c3
c3
fe
7c
ENDCHAR
STARTCHAR Udieresis
ENCODING 220
SWIDTH 602 0
DWIDTH 10 0
BBX 8 15 1 0
BITMAP
36
36
00
c3
c3
c3
c3
c3
c3
c3
c3
c3
c3
fe
7c
ENDCHAR
STARTCHAR Yacute
ENCODING 221
SWIDTH 602 0
DWIDTH 10 0
BBX 10 15 0 0
BITMAP
0e00
1800
0000
e0c0
6180
3380
3300
1f00
1e00
0e00
0c00
0c00
0c00
0c00
0c00
ENDCHAR
STARTCHAR Thorn
ENCODING 222
SWIDTH 602 0
DWIDTH 10 0
BBX 9 12 1 0
BITMAP
c000
c000
fe00
ff00
c180
c180
c180
c380
ff00
fe00
c000
c000
ENDCHAR
STARTCHAR germandbls
ENCODING 223
SWIDTH 602 0
DWIDTH 10 0
BBX 8 12 1 0
BITMAP
7c
fe
c6
c4
c8
d8
dc
ce
c3
d3
df
de
ENDCHAR
STARTCHAR agrave
ENCODING 224
SWIDTH 602 0
DWIDTH 10 0
BBX 9 12 1 0
BITMAP
3800
0c00
0000
7e00
7f00
4300
3f00
ff00
c300
c700
ff80
7b80
ENDCHAR
STARTCHAR aacute
ENCODING 225
SWIDTH 602 0
DWIDTH 10 0
BBX 9 12 1 0
BITMAP
1c00
3000
0000
7e00
7f00
4300
3f00
ff00
c300
c700
ff80
7b80
ENDCHAR
STARTCHAR acircumflex
ENCODING 226
SWIDTH 602 0
DWIDTH 10 0
BBX 9 12 1 0
BITMAP
1c00
3600
0000
7e00
7f00
4300
3f00
ff00
c300
c700
ff80
7b80
ENDCHAR
STARTCHAR atilde
ENCODING 227
SWIDTH 602 0
DWIDTH 10 0
BBX 9 12 1 0
BITMAP
3e00
3e00
0000
7e00
7f00
4300
3f00
ff00
c300
c700
ff80
7b80
ENDCHAR
STARTCHAR adieresis
ENCODING 228
SWIDTH 602 0
DWIDTH 10 0
BBX 9 12 1 0
BITMAP
3600
3600
0000
7e00
7f00
4300
3f00
ff00
c300
c700
ff80
7b80
ENDCHAR
STARTCHAR aring
ENCODING 229
SWIDTH 602 0
DWIDTH 10 0
BBX 9 12 1 0
BITMAP
1c00
1c00
0000
7e00
7f00
4300
3f00
ff00
c300
c700
ff80
7b80
ENDCHAR
STARTCHAR ae
ENCODING 230
SWIDTH 602 0
DWIDTH 10 0
BBX 10 9 0 0
BITMAP
7b80
7f80
4cc0
0cc0
7fc0
ffc0
cc40
ffc0
7380
ENDCHAR
STARTCHAR ccedilla
ENCODING 231
SWIDTH 602 0
DWIDTH 10 0
BBX 8 12 1 -3
BITMAP
3f
7f
e1
c0
c0
c0
e0
7f
3f
08
0c
1c
ENDCHAR
STARTCHAR egrave
ENCODING 232
SWIDTH 602 0
DWIDTH 10 0
BBX 9 12 1 0
BITMAP
3800
0c00
0000
3e00
7f00
e180
ff80
ff80
c000
e080
7f80
1f00
ENDCHAR
STARTCHAR eacute
ENCODING 233
SWIDTH 602 0
DWIDTH 10 0
BBX 9 12 1 0
BITMAP
1c00
3000
0000
3e00
7f00
e180
ff80
ff80
c000
e080
7f80
1f00
ENDCHAR
STARTCHAR ecircumflex
ENCODING 234
SWIDTH 602 0
DWIDTH 10 0
BBX 9 12 1 0
BITMAP
1c00
3600
0000
3e00
7f00
e180
ff80
ff80
c000
e080
7f80
1f00
ENDCHAR
STARTCHAR edieresis
ENCODING 235
SWIDTH 602 0
DWIDTH 10 0
BBX 9 12 1 0
BITMAP
3600
3600
0000
3e00
7f00
e180
ff80
ff80
c000
e080
7f80
1f00
ENDCHAR
STARTCHAR igrave
ENCODING 236
SWIDTH 602 0
DWIDTH 10 0
BBX 5 12 2 0
BITMAP
70
18
00
f8
f8
18
18
18
18
18
18
18
ENDCHAR
STARTCHAR iacute
ENCODING 237
SWIDTH 602 0
DWIDTH 10 0
BBX 5 12 2 0
BITMAP
38
60
00
f8
f8
18
18
18
18
18
18
18
ENDCHAR
STARTCHAR icircumflex
ENCODING 238
SWIDTH 602 0
DWIDTH 10 0
BBX 6 12 2 0
BITMAP
38
6c
00
f8
f8
18
18
18
18
18
18
18
ENDCHAR
STARTCHAR idieresis
ENCODING 239
SWIDTH 602 0
DWIDTH 10 0
BBX 6 12 2 0
BITMAP
6c
6c
00
f8
f8
18
18
18
18
18
18
18
ENDCHAR
STARTCHAR eth
ENCODING 240
SWIDTH 602 0
DWIDTH 10 0
BBX 9 12 1 0
BITMAP
fe00
bf00
2600
3f00
7f80
e380
c180
c180
c180
e380
7f00
3e00
ENDCHAR
STARTCHAR ntilde
ENCODING 241
SWIDTH 602 0
DWIDTH 10 0
BBX 8 12 1 0
BITMAP
7c
7c
00
de
ff
e3
c3
c3
c3
c3
c3
c3
ENDCHAR
STARTCHAR ograve
ENCODING 242
SWIDTH 602 0
DWIDTH 10 0
BBX 9 12 1 0
BITMAP
1c00
0600
0000
3e00
7f00
e380
c180
c180
c180
e380
7f00
3e00
ENDCHAR
STARTCHAR oacute
ENCODING 243
SWIDTH 602 0
DWIDTH 10 0
BBX 9 12 1 0
BITMAP
1c00
3000
0000
3e00
7f00
e380
c180
c180
c180
e380
7f00
3e00
ENDCHAR
STARTCHAR ocircumflex
ENCODING 244
SWIDTH 602 0
DWIDTH 10 0
BBX 9 12 1 0
BITMAP
1c00
3600
0000
3e00
7f00
e380
c180
c180
c180
e380
7f00
3e00
ENDCHAR
STARTCHAR otilde
ENCODING 245
SWIDTH 602 0
DWIDTH 10 0
BBX 9 12 1 0
BITMAP
3e00
3e00
0000
3e00
7f00
e380
c180
c180
c180
e380
7f00
3e00
ENDCHAR
STARTCHAR odieresis
ENCODING 246
SWIDTH 602 0
DWIDTH 10 0
BBX 9 12 1 0
BITMAP
3600
3600
0000
3e00
7f00
e380
c180
c180
c180
e380
7f00
3e00
ENDCHAR
STARTCHAR divide
ENCODING 247
SWIDTH 602 0
DWIDTH 10 0
BBX 8 9 1 0
BITMAP
18
18
00
ff
ff
00
00
18
18
ENDCHAR
STARTCHAR oslash
ENCODING 248
SWIDTH 602 0
DWIDTH 10 0
BBX 9 9 1 0
BITMAP
3f80
7f00
e780
cf80
dd80
f980
f380
7f00
fe00
ENDCHAR
STARTCHAR ugrave
ENCODING 249
SWIDTH 602 0
DWIDTH 10 0
BBX 8 12 1 0
BITMAP
38
0c
00
c3
c3
c3
c3
c3
c3
c7
ff
7b
ENDCHAR
STARTCHAR uacute
ENCODING 250
SWIDTH 602 0
DWIDTH 10 0
BBX 8 12 1 0
BITMAP
1c
30
00
c3
c3
c3
c3
c3
c3
c7
ff
7b
ENDCHAR
STARTCHAR ucircumflex
ENCODING 251
SWIDTH 602 0
DWIDTH 10 0
BBX 8 12 1 0
BITMAP
1c
36
00
c3
c3
c3
c3
c3
c3
c7
ff
7b
ENDCHAR
STARTCHAR udieresis
ENCODING 252
SWIDTH 602 0
DWIDTH 10 0
BBX 8 12 1 0
BITMAP
36
36
00
c3
c3
c3
c3
c3
c3
c7
ff
7b
ENDCHAR
STARTCHAR yacute
ENCODING 253
SWIDTH 602 0
DWIDTH 10 0
BBX 10 15 0 -3
BITMAP
0e00
1800
0000
e0c0
6180
3180
3300
1b00
1e00
0e00
0e00
0c00
1c00
7800
7000
ENDCHAR
STARTCHAR thorn
ENCODING 254
SWIDTH 602 0
DWIDTH 10 0
BBX 9 15 1 -3
BITMAP
c000
c000
c000
de00
ff00
e380
c180
c180
c180
e380
ff00
de00
c000
c000
c000
ENDCHAR
STARTCHAR ydieresis
ENCODING 255
SWIDTH 602 0
DWIDTH 10 0
BBX 10 15 0 -3
BITMAP
3600
3600
0000
e0c0
6180
3180
3300
1b00
1e00
0e00
0e00
0c00
1c00
7800
7000
ENDCHAR
ENDFONT
